# xmcd CD database file
# Generated: ?t pro 19 12:55:04 2002 by KSCD
# 
# Track frame offsets:
#       150
#       28747
#       61047
#       79357
#       102570
#       115362
#       137200
#       147452
#       160970
#
# Disc length: 2559 seconds
#
# Revision: 2
# Processed by: cddbd v1.4PL0 Copyright (c) Steve Scherf et al.
# Submitted via: Kscd 1.3.3
#
DISCID=8309fd09
DTITLE=Miroslav Vitous - Jan Garbarek - Atmos
DYEAR=1900
DGENRE=
TTITLE0=Pegasos
TTITLE1=Goddess
TTITLE2=Forthcoming
TTITLE3=Atmos
TTITLE4=Time Out - part I
TTITLE5=Diversion
TTITLE6=Time Out - part II
TTITLE7=Helikon
TTITLE8=Hippukrene
EXTD=
EXTT0=
EXTT1=
EXTT2=
EXTT3=
EXTT4=
EXTT5=
EXTT6=
EXTT7=
EXTT8=
PLAYORDER=
